<?xml version="1.0" encoding="utf-8"?>
<!-- Generator: Adobe Illustrator 23.0.1, SVG Export Plug-In . SVG Version: 6.00 Build 0)  -->
<svg version="1.1" id="Layer_1" xmlns="http://www.w3.org/2000/svg" xmlns:xlink="http://www.w3.org/1999/xlink" x="0px" y="0px"
	 width="81px" height="14.9px" viewBox="0 0 81 14.9" style="enable-background:new 0 0 81 14.9;" xml:space="preserve">
<style type="text/css">
	.Drop_x0020_Shadow{fill:none;}
	.Outer_x0020_Glow_x0020_5_x0020_pt{fill:none;}
	.Blue_x0020_Neon{fill:none;stroke:#8AACDA;stroke-width:7;stroke-linecap:round;stroke-linejoin:round;}
	.Chrome_x0020_Highlight{fill:url(#SVGID_1_);stroke:#FFFFFF;stroke-width:0.3629;stroke-miterlimit:1;}
	.Jive_GS{fill:#FFDD00;}
	.Alyssa_GS{fill:#A6D0E4;}
	.st0{fill:#C0FEE8;}
</style>
<linearGradient id="SVGID_1_" gradientUnits="userSpaceOnUse" x1="-164" y1="-449.4294" x2="-164" y2="-450.4294">
	<stop  offset="0" style="stop-color:#656565"/>
	<stop  offset="0.618" style="stop-color:#1B1B1B"/>
	<stop  offset="0.6292" style="stop-color:#545454"/>
	<stop  offset="0.9831" style="stop-color:#3E3E3E"/>
</linearGradient>
<path class="st0" d="M81,13.5V1.3C81,0.6,80.3,0,79.4,0H1.6C0.7,0,0,0.6,0,1.3v12.2c0,0.7,0.7,1.3,1.6,1.3h77.9
	C80.3,14.9,81,14.3,81,13.5"/>
<g>
	<path d="M4.5,8.9l-1.1,2.5H2.9l3.4-7.9h0.5l3.4,7.9H9.7L8.6,8.9H4.5z M7.5,6.3C6.9,4.8,6.6,4,6.6,4h0c0,0-0.4,0.8-1,2.4L4.7,8.4
		h3.7L7.5,6.3z"/>
	<path d="M14.5,7.9c-0.4,0-0.7,0-0.9,0h-1.2v3.4h-0.5V3.5h2.2c1.8,0,2.9,0.8,2.9,2.2c0,1.2-0.8,2-2,2.2l2.2,3.5h-0.6L14.5,7.9z
		 M14.1,7.5c1.6,0,2.4-0.5,2.4-1.7c0-1.3-0.9-1.7-2.4-1.7h-1.7v3.5H14.1z"/>
	<path d="M22.9,7.2c0.8,0.1,2,0.6,2,2c0,1.3-1,2.2-2.6,2.2h-3.1V3.5H22c1.4,0,2.3,0.9,2.3,1.9C24.3,6.6,23.6,7,22.9,7.2L22.9,7.2z
		 M21.9,7c0.9,0,1.9-0.5,1.9-1.6C23.7,4.6,23,4,21.9,4h-2.2v3H21.9z M22.2,10.9c1.1,0,2-0.6,2-1.6c0-1.1-1-1.7-2.1-1.7h-2.5v3.4
		H22.2z"/>
	<path d="M26.7,3.5h0.5v7.9h-0.5V3.5z"/>
	<path d="M32.4,4v7.4h-0.5V4H29V3.5h6.3V4H32.4z"/>
	<path d="M39.7,7.9c-0.4,0-0.7,0-0.9,0h-1.2v3.4h-0.5V3.5h2.2c1.8,0,2.9,0.8,2.9,2.2c0,1.2-0.8,2-2,2.2l2.2,3.5h-0.6L39.7,7.9z
		 M39.3,7.5c1.6,0,2.4-0.5,2.4-1.7c0-1.3-0.9-1.7-2.4-1.7h-1.7v3.5H39.3z"/>
	<path d="M45.1,8.9L44,11.4h-0.5l3.4-7.9h0.5l3.4,7.9h-0.6l-1.1-2.5H45.1z M48.1,6.3C47.5,4.8,47.2,4,47.2,4h0c0,0-0.4,0.8-1,2.4
		l-0.9,2.1H49L48.1,6.3z"/>
	<path d="M53.7,4v7.4h-0.5V4h-2.9V3.5h6.3V4H53.7z"/>
	<path d="M58.4,3.5h0.5v7.9h-0.5V3.5z"/>
	<path d="M64.8,3.3c2.3,0,4.1,1.7,4.1,4.1c0,2.4-1.8,4.1-4.1,4.1c-2.3,0-4.1-1.7-4.1-4.1C60.8,5.1,62.6,3.3,64.8,3.3z M64.8,11
		c2,0,3.5-1.5,3.5-3.6c0-2.1-1.6-3.6-3.5-3.6c-2,0-3.5,1.5-3.5,3.6C61.3,9.6,62.9,11,64.8,11z"/>
	<path d="M76.5,11.4l-5.2-7.1h0c0,0,0,0.9,0,1.8v5.3h-0.5V3.5h0.5l5.2,7h0c0,0,0-0.9,0-1.8V3.5H77v7.9H76.5z"/>
</g>
</svg>
