<?xml version="1.0" encoding="utf-8"?>
<!-- Generator: Adobe Illustrator 23.0.1, SVG Export Plug-In . SVG Version: 6.00 Build 0)  -->
<svg version="1.1" id="Layer_1" xmlns="http://www.w3.org/2000/svg" xmlns:xlink="http://www.w3.org/1999/xlink" x="0px" y="0px"
	 width="64px" height="14.9px" viewBox="0 0 64 14.9" style="enable-background:new 0 0 64 14.9;" xml:space="preserve">
<style type="text/css">
	.Drop_x0020_Shadow{fill:none;}
	.Outer_x0020_Glow_x0020_5_x0020_pt{fill:none;}
	.Blue_x0020_Neon{fill:none;stroke:#8AACDA;stroke-width:7;stroke-linecap:round;stroke-linejoin:round;}
	.Chrome_x0020_Highlight{fill:url(#SVGID_1_);stroke:#FFFFFF;stroke-width:0.3629;stroke-miterlimit:1;}
	.Jive_GS{fill:#FFDD00;}
	.Alyssa_GS{fill:#A6D0E4;}
	.st0{fill:#2D0028;}
    .st1{fill:#C0FEE8; }
</style>
<linearGradient id="SVGID_1_" gradientUnits="userSpaceOnUse" x1="-164" y1="-449.218" x2="-164" y2="-450.218">
	<stop  offset="0" style="stop-color:#656565"/>
	<stop  offset="0.618" style="stop-color:#1B1B1B"/>
	<stop  offset="0.6292" style="stop-color:#545454"/>
	<stop  offset="0.9831" style="stop-color:#3E3E3E"/>
</linearGradient>
<path class="st0" d="M64,13.5V1.3C64,0.6,63.4,0,62.8,0H1.2C0.6,0,0,0.6,0,1.3v12.2c0,0.7,0.6,1.3,1.2,1.3h61.5
	C63.4,14.9,64,14.3,64,13.5"/>
<polygon class="st1" points="50.3,9.6 51.3,11.8 51.9,11.8 48.6,4.1 47.9,4.1 44.6,11.8 45.2,11.8 46.2,9.6 "/>
<path class="st1" d="M42.4,11.8h0.8l-1.9-3.3c1.1-0.2,1.8-0.9,1.8-2.1c0-1.5-1.1-2.3-2.8-2.3h-2.2v7.7h0.6V8.7h1.1h0.8L42.4,11.8z"
	/>
<path class="st1" d="M23.9,7.7c0.6-0.1,1.3-0.6,1.3-1.7c0-1.1-0.9-1.9-2.3-1.9h-2.6v7.7h2.9c1.6,0,2.6-0.8,2.6-2.1
	C25.7,8.3,24.6,7.8,23.9,7.7L23.9,7.7z"/>
<path class="st1" d="M17.5,11.8h0.8l-1.9-3.3c1.1-0.2,1.8-0.9,1.8-2.1c0-1.5-1.1-2.3-2.8-2.3h-2.2v7.7h0.6V8.7h1.1h0.8L17.5,11.8z"
	/>
<polygon class="st1" points="9.8,9.6 10.7,11.8 11.4,11.8 8.1,4.1 7.4,4.1 4,11.8 4.7,11.8 5.7,9.6 "/>
<path class="st1" d="M59.5,4.7V4.1h-6.1v0.6h4.4c0.6,0,0.9,0,0.9,0l0,0c0,0-0.3,0.3-0.9,1l-4.6,5.5v0.6h6.2v-0.6H55
	c-0.5,0-0.9,0-0.9,0l0,0c0,0,0.2-0.2,0.9-1.1L59.5,4.7z"/>
<path class="st1" d="M56.4,3.3c0.2,0,0.4-0.2,0.4-0.4c0-0.2-0.2-0.4-0.4-0.4c-0.2,0-0.4,0.2-0.4,0.4C56,3.1,56.1,3.3,56.4,3.3"/>
<path class="st0" d="M50,9h-3.6l0.9-2.2c0.3-0.7,0.8-2,0.8-2h0c0,0,0.5,1.3,0.8,2L50,9z"/>
<path class="st0" d="M38.7,8.2V4.7h1.6c1.3,0,2.2,0.6,2.2,1.8c0,1.2-0.9,1.7-2.1,1.7H38.7z"/>
<polygon class="st1" points="36.2,4.7 36.2,4.1 30.1,4.1 30.1,4.7 32.8,4.7 32.8,11.8 33.5,11.8 33.5,4.7 "/>
<rect x="27.6" y="4.1" class="st1" width="0.6" height="7.7"/>
<path class="st0" d="M20.8,11.3V8h2.2c1,0,2,0.6,2,1.7c0,1.1-0.8,1.6-1.9,1.6H20.8z"/>
<path class="st0" d="M20.8,7.5V4.7h1.9c1.1,0,1.8,0.5,1.8,1.4c0,0.9-0.7,1.4-1.7,1.4H20.8z"/>
<path class="st0" d="M13.8,8.2V4.7h1.6c1.3,0,2.2,0.6,2.2,1.8c0,1.2-0.9,1.7-2.1,1.7H13.8z"/>
<path class="st0" d="M9.5,9H5.9l0.9-2.2c0.3-0.7,0.8-2,0.8-2h0c0,0,0.5,1.3,0.8,2L9.5,9z"/>
</svg>
